<svg width="740" height="300" viewBox="0 0 740 300" xmlns="http://www.w3.org/2000/svg" xmlns:xlink="http://www.w3.org/1999/xlink"><defs><linearGradient id="g" x1="0" y1="0" x2="0" y2="1"><stop offset="0%" stop-color="#6366F1"/><stop offset="100%" stop-color="#4338CA"/></linearGradient></defs><rect width="740" height="300" fill="#f5f5f0"/><rect x="20" y="20" width="200" height="200" rx="44" fill="url(#g)"/><svg x="44" y="44" width="152" height="152" viewBox="0 0 128 128" xmlns="http://www.w3.org/2000/svg" xmlns:xlink="http://www.w3.org/1999/xlink">
<path id="Lhand_L" style="fill:#FFCA28;" d="M69.3,31.7c11.4-1.9,31.6,1.3,44.8-7.6c1.7-1.2,2.6-0.1,3,0.4
	c3.2,4.1,6.7,28.5,4.9,34.7c-0.5,1.7-1.2,2.2-2.1,2.8c-2.1,1.6-9,6.8-15.9,16c1.8,3.1,1.2,5.6-0.8,7.7c-2,2.2-4.3,3-7.3,2
	c0,2.4-0.2,3.7-1.7,5.2c-2.3,2.2-5.6,2.8-8.1,2.3c0.2,2.5-1.3,3.8-2.4,4.6c-2.5,1.9-4.9,2.4-8.3,1c-0.7,1.4-5.3,6-10.9,2.4
	c-1.1-0.7-3.7-2.6-3.7-2.6s-5.3,5-10.8,2.8c-1.1-0.4-2.6-1.8-3-3.1c-1.3,0.9-5,1.2-6.9-0.2c-1.8-1.4-4.2-3.6-3.6-7.3
	c-2,0.8-3.8,0.9-6.5-1.6c-2-1.9-3.7-4.4-2.4-6.6c-2.1,0.4-3.7-0.3-4.7-1.5c-1-1.2-3.4-4.8-0.7-8.2c-7.5-5-11.9-9.5-13.8-10.4
	c-1.1-0.6-1.9-1.5-2.2-2.8c-0.9-4.7,0-30.5,5.1-36c0.9-1,2.1-0.7,2.7-0.3C43.7,43.5,51.5,25.4,69.3,31.7z"/>
<g id="Rhand_L">
	<path style="fill:#FFCB05;" d="M51,93c2.6-3,3.4-6.7,0.9-9.2c-3.5-3.4-6.3-2.1-8.9-0.8c2.6-2.9,2.2-6.4-0.1-8.4
		C39.5,71.7,36,74,33,77c0.6-2,1.7-2.7-0.9-5.7c-2.4-2.7-8.4-0.3-9.9,3.6c-2.7,3.4-0.3,7,0.7,8.2s2.6,1.9,4.7,1.5
		c-1.3,2.2,0.4,4.7,2.4,6.6c2.7,2.5,4.5,2.4,6.5,1.6c-0.6,3.7,1.8,5.9,3.6,7.3c1.9,1.4,5.6,1.1,6.9,0.2c0.4,1.3,1.9,2.7,3,3.1
		c2.3,0.9,4.6,0.6,6.4-0.1c2.9-3.7,4.2-9.2,1.1-11.6C55.2,90,53,91,51,93z"/>
	<path style="fill:#FFCB05;" d="M117.1,24.5c-0.4-0.5-1.3-1.6-3-0.4c-13.2,8.9-33.4,5.7-44.8,7.6c-2.4,0-3.7,0.1-6.6,1.2
		c-4.4,1.7-11.7,7.8-19.5,10.8c-3.6,1.4-4.5,6.8-0.1,9.1c9.3,5,19.5-4.6,29-5.2C80.4,47,87.2,57,92,63c2.9,3.7,7.7,10,12,15
		c6.4-8.7,13.9-14.5,15.9-16c0.9-0.6,1.6-1.1,2.1-2.8C123.8,53,120.3,28.6,117.1,24.5z"/>
</g>
<g id="Lhand_L_00000022558525288228140080000016877724492960837023_">
	<g>
		<defs>
			<path id="SVGID_1_" d="M69.3,31.7c11.4-1.9,31.6,1.3,44.8-7.6c1.7-1.2,2.6-0.1,3,0.4c3.2,4.1,6.7,28.5,4.9,34.7
				c-0.5,1.7-1.2,2.2-2.1,2.8c-2.1,1.6-9,6.8-15.9,16c1.8,3.1,1.2,5.6-0.8,7.7c-2,2.2-4.3,3-7.3,2c0,2.4-0.2,3.7-1.7,5.2
				c-2.3,2.2-5.6,2.8-8.1,2.3c0.2,2.5-1.3,3.8-2.4,4.6c-2.5,1.9-4.9,2.4-8.3,1c-0.7,1.4-5.3,6-10.9,2.4c-1.1-0.7-3.7-2.6-3.7-2.6
				s-5.3,5-10.8,2.8c-1.1-0.4-2.6-1.8-3-3.1c-1.3,0.9-5,1.2-6.9-0.2c-1.8-1.4-4.2-3.6-3.6-7.3c-2,0.8-3.8,0.9-6.5-1.6
				c-2-1.9-3.7-4.4-2.4-6.6c-2.1,0.4-3.7-0.3-4.7-1.5c-1-1.2-3.4-4.8-0.7-8.2c-7.5-5-11.9-9.5-13.8-10.4c-1.1-0.6-1.9-1.5-2.2-2.8
				c-0.9-4.7,0-30.5,5.1-36c0.9-1,2.1-0.7,2.7-0.3C43.7,43.5,51.5,25.4,69.3,31.7z"/>
		</defs>
		<clipPath id="SVGID_00000050659491665063980300000008230102799415962294_">
			<use href="#SVGID_1_"  style="overflow:visible;"/>
		</clipPath>
		<g style="clip-path:url(#SVGID_00000050659491665063980300000008230102799415962294_);">
			<path style="fill:#FAA700;" d="M22.5,72.1c0,0-14-8.7-15-9.3s-1.6-1.6-2.3-3s-0.8,1.4-0.8,1.4l12.2,17.5c2.2-1.9,4.4-3.8,6.6-5.9
				C23,72.3,22.5,72.1,22.5,72.1z"/>
			<path style="fill:#FAA700;" d="M105.1,77.5c-4.7-1.9-5.9-8.2-10.5-10c1.9,2.7,4.7,6.8,5.3,7.6c1.6,2.2,0.8,3.6,0.3,4.5
				c-0.6,0.9-1.9,2.5-3.1,3.5c-1.8,1.5-4.2,0.9-5.3,0.2c-1.1-0.7-3.3-0.4-2,1.2c2.3,3,1.3,4.3,1,4.9c-0.5,0.8-1.5,1.9-2.2,2.5
				c-1.4,1.2-4.4,0.9-5.5,0.2c-1.1-0.7-3.6-0.9-2.5,0.4c1.7,2,0.4,3.6,0.1,4s-1,1.1-2,2.2c-0.8,0.9-2.9,1-4.1,0.3
				c-0.7-0.4-4.2-3.3-5-3.8s-2.4-0.1-0.9,2c1.5,2.2,1.3,2.7,0.8,3.5c-0.2,0.3-0.6,0.8-1.3,1.5c-1.4,1.4-3.3-0.2-3.3-0.2l-5.7-4
				c0,0-0.3,0.2-1.1,0.7c0.3,2.7,1.3,5.4,1.7,8l2.3,0.3l22.4-4.3l23.8-18.2L105.1,77.5z"/>
			<path style="fill:#FAA700;" d="M80.8,52.2c-1.9-1.1-4.2-2.6-7.7-1s-11.6,5.4-13.9,6.4c-2.4,1-8.4,2.6-11.9-2.5
				c4.6-1.3,19.8-7,19.8-7l6.8-0.9l5.3,1.9c0,0,1.8,1.4,2.4,2C82.3,51.7,80.8,52.2,80.8,52.2z"/>
			<path style="fill:#FAA700;" d="M78,20.5c-30.6,0.2-68.9,0.4-68.9,0.4l0.6,5c31.8,19.3,40.3,4.9,51.5,6.9
				c3.2-0.5,8.8-1.6,10.7-1.8C78.4,27.6,77.6,29.8,78,20.5z"/>
		</g>
	</g>
</g>
<g id="Lhand_D">
	<g>
		<defs>
			<path id="SVGID_00000136396513572373996840000011219656396816215200_" d="M69.3,31.7c11.4-1.9,31.6,1.3,44.8-7.6
				c1.7-1.2,2.6-0.1,3,0.4c3.2,4.1,6.7,28.5,4.9,34.7c-0.5,1.7-1.2,2.2-2.1,2.8c-2.1,1.6-9,6.8-15.9,16c1.8,3.1,1.2,5.6-0.8,7.7
				c-2,2.2-4.3,3-7.3,2c0,2.4-0.2,3.7-1.7,5.2c-2.3,2.2-5.6,2.8-8.1,2.3c0.2,2.5-1.3,3.8-2.4,4.6c-2.5,1.9-4.9,2.4-8.3,1
				c-0.7,1.4-5.3,6-10.9,2.4c-1.1-0.7-3.7-2.6-3.7-2.6s-5.3,5-10.8,2.8c-1.1-0.4-2.6-1.8-3-3.1c-1.3,0.9-5,1.2-6.9-0.2
				c-1.8-1.4-4.2-3.6-3.6-7.3c-2,0.8-3.8,0.9-6.5-1.6c-2-1.9-3.7-4.4-2.4-6.6c-2.1,0.4-3.7-0.3-4.7-1.5c-1-1.2-3.4-4.8-0.7-8.2
				c-7.5-5-11.9-9.5-13.8-10.4c-1.1-0.6-1.9-1.5-2.2-2.8c-0.9-4.7,0-30.5,5.1-36c0.9-1,2.1-0.7,2.7-0.3
				C43.7,43.5,51.5,25.4,69.3,31.7z"/>
		</defs>
		<clipPath id="SVGID_00000068674858325689563410000017141700197052902077_">
			<use href="#SVGID_00000136396513572373996840000011219656396816215200_"  style="overflow:visible;"/>
		</clipPath>
		<g style="clip-path:url(#SVGID_00000068674858325689563410000017141700197052902077_);">
			<path style="fill:#B55E19;" d="M22.5,71.7c-0.7-0.4-8-4.5-10.6-5.5c-1.1-0.4-1.3,0.2-1.1,0.6l4.5,5.1c0,0,5.2,4.7,6.9,3
				C23,74.1,23.7,72.5,22.5,71.7z"/>
			<path style="fill:#B55E19;" d="M95.9,87.7c-5-1.9-9.7-6.2-16.9-13.2c-1.1-1.1,0.6-3.2,2.1-1.8C90,81,92,82.8,97.5,86.4
				c2.5,1.7,3.8,0.3,3.8,1.4c0,0.7-0.7,1.3-2,1.4S95.9,87.7,95.9,87.7z"/>
			<path style="fill:#B55E19;" d="M86.1,95.2c-1.5-0.3-4.1,0.1-15.5-11.4c-1.2-1.3,0.6-3.2,2.1-1.7c5.9,5.9,8.5,8.1,13,11.4
				c2.6,2,3.7,0.9,3.7,2C89.4,96.3,86.1,95.2,86.1,95.2z"/>
			<path style="fill:#B55E19;" d="M75.4,100.8c-1.6-0.5-10.5-7.4-11.4-8.2c-1.5-1.3,0-2.9,1.6-1.6c5.5,4.8,9.6,8.1,11,9
				c2.1,1.4,2.7,0.9,2.7,1.8C79.3,102.7,77,101.3,75.4,100.8z"/>
		</g>
	</g>
</g>
<g id="Rhand_M">
	<g>
		<defs>
			<path id="SVGID_00000026881304492132840420000002662522521691577738_" d="M69.3,31.7c11.4-1.9,31.6,1.3,44.8-7.6
				c1.7-1.2,2.6-0.1,3,0.4c3.2,4.1,6.7,28.5,4.9,34.7c-0.5,1.7-1.2,2.2-2.1,2.8c-2.1,1.6-9,6.8-15.9,16c1.8,3.1,1.2,5.6-0.8,7.7
				c-2,2.2-4.3,3-7.3,2c0,2.4-0.2,3.7-1.7,5.2c-2.3,2.2-5.6,2.8-8.1,2.3c0.2,2.5-1.3,3.8-2.4,4.6c-2.5,1.9-4.9,2.4-8.3,1
				c-0.7,1.4-5.3,6-10.9,2.4c-1.1-0.7-3.7-2.6-3.7-2.6s-5.3,5-10.8,2.8c-1.1-0.4-2.6-1.8-3-3.1c-1.3,0.9-5,1.2-6.9-0.2
				c-1.8-1.4-4.2-3.6-3.6-7.3c-2,0.8-3.8,0.9-6.5-1.6c-2-1.9-3.7-4.4-2.4-6.6c-2.1,0.4-3.7-0.3-4.7-1.5c-1-1.2-3.4-4.8-0.7-8.2
				c-7.5-5-11.9-9.5-13.8-10.4c-1.1-0.6-1.9-1.5-2.2-2.8c-0.9-4.7,0-30.5,5.1-36c0.9-1,2.1-0.7,2.7-0.3
				C43.7,43.5,51.5,25.4,69.3,31.7z"/>
		</defs>
		<clipPath id="SVGID_00000070815473304232962190000001698117849715451524_">
			<use href="#SVGID_00000026881304492132840420000002662522521691577738_"  style="overflow:visible;"/>
		</clipPath>
		<g style="clip-path:url(#SVGID_00000070815473304232962190000001698117849715451524_);">
			<path style="fill:#FAA700;" d="M115.1,20.4c0,0-16.8,0-37.1,0.1c-0.4,9.3-11.2,9.6-17.8,13c-2.9,2.1-10.4,6.9-10.4,6.9
				s3,1.6,6-0.3c9.5-6.2,13.2-6.8,17.4-6.7c26.2,0.2,34.5-1.3,44.4-9.6C119.2,22.5,115,20.5,115.1,20.4z"/>
			<path style="fill:#FAA700;" d="M58.1,98.6c-0.5,0.3-1.1,0.8-1.8,1.5c-2.3,2.1-3.9,1.4-5.6,0c-1.7-1.4-1.2-3.1-0.8-4.3
				c0.4-1.2-0.4-0.5-2.9,1.3c-2.9,2.2-4.3,0.9-5.4,0.2c-0.6-0.3-1.7-1.5-2.7-2.8c-1.6-2.1-0.3-4.3,0.1-5s0.1-1.4-1.1-0.7
				c-2,1.2-3.9,0-4.7-0.5c-0.7-0.5-1.9-1.7-2.7-2.7c-1.6-2-0.5-3.7-0.1-4.7s-0.5-1.6-2.3-0.4c-2.4,1.5-7.2-1.5-4.9-6.6
				c0.2-0.5-0.4-0.9-1,1c-2.2,2.1-3.4,1.9-5.6,3.8l0.8,1.1l11,13.6l17.4,11.4l14,1.9C59.4,104,58.4,101.3,58.1,98.6z"/>
			<path style="fill:#FAA700;" d="M105.1,77.5l-0.7-1.5c0,0-1.5-7.9-1.4-13.1c2.4-3.5,1.9-5.6,0.1-6.5c-1.8-0.8-5.3,0.1-8.6-0.5
				L89.9,58l3,7c0,0,0.7,1,1.7,2.4C99.2,69.2,100.4,75.6,105.1,77.5z"/>
		</g>
	</g>
</g>
<g id="Rhand_D">
	<g>
		<defs>
			<path id="SVGID_00000062879743151189861620000003395942956702172582_" d="M69.3,31.7c11.4-1.9,31.6,1.3,44.8-7.6
				c1.7-1.2,2.6-0.1,3,0.4c3.2,4.1,6.7,28.5,4.9,34.7c-0.5,1.7-1.2,2.2-2.1,2.8c-2.1,1.6-9,6.8-15.9,16c1.8,3.1,1.2,5.6-0.8,7.7
				c-2,2.2-4.3,3-7.3,2c0,2.4-0.2,3.7-1.7,5.2c-2.3,2.2-5.6,2.8-8.1,2.3c0.2,2.5-1.3,3.8-2.4,4.6c-2.5,1.9-4.9,2.4-8.3,1
				c-0.7,1.4-5.3,6-10.9,2.4c-1.1-0.7-3.7-2.6-3.7-2.6s-5.3,5-10.8,2.8c-1.1-0.4-2.6-1.8-3-3.1c-1.3,0.9-5,1.2-6.9-0.2
				c-1.8-1.4-4.2-3.6-3.6-7.3c-2,0.8-3.8,0.9-6.5-1.6c-2-1.9-3.7-4.4-2.4-6.6c-2.1,0.4-3.7-0.3-4.7-1.5c-1-1.2-3.4-4.8-0.7-8.2
				c-7.5-5-11.9-9.5-13.8-10.4c-1.1-0.6-1.9-1.5-2.2-2.8c-0.9-4.7,0-30.5,5.1-36c0.9-1,2.1-0.7,2.7-0.3
				C43.7,43.5,51.5,25.4,69.3,31.7z"/>
		</defs>
		<clipPath id="SVGID_00000044900857984647587650000011842617158733516931_">
			<use href="#SVGID_00000062879743151189861620000003395942956702172582_"  style="overflow:visible;"/>
		</clipPath>
		<g style="clip-path:url(#SVGID_00000044900857984647587650000011842617158733516931_);">
			<path style="fill:#B55E19;" d="M120.6,62.6c-1.8,0.3-5.8-0.2-17,11.2c-0.5,0.5-1.2,0.5-1.7,0c-2.3-2.7-5.1-6.9-8.4-13.2
				c-0.5-0.9-0.1-2.4,1.5-2.3c1.6,0.1,5.7-0.6,6.6-1.2c1-0.6,0.2-1.1-0.4-1.1C96,55.9,90,56,80.8,48.6c-1.5-1.2-7.4-5.1-16.2-1
				c-4,1.8-9.2,3.8-10.8,4.3c-2.7,0.9-9,2.4-11.7-1.9c-0.9-1.4-1.3-3.8,1-5c2.4-1.2,5.4-2.5,9.2-4.7c6.1-3.5,10.9-7.8,17-8.6
				c0.6-1,0.6-0.6,0.1-0.5c-13.6,0.7-13.4,6-27,11.7c-3.3,1.4-4.4,4.5-2.5,7.9c2.5,4.4,6.2,5.7,15.5,3.4c5-1.2,14.7-7.7,21.4-4.4
				c3.1,1.5,8.4,6.3,15.1,14.9c6.6,8.4,11,11.4,12.1,13.3c2.7,0.6,9-5.2,9-5.2L120.6,62.6z"/>
			<path style="fill:#B55E19;" d="M22.5,71.7c3.5-4.2,8.1-3.1,10-1.6c1.6,1.3,2.1,2.6,2.1,4c1.3-1,4.8-4,9.4-0.2
				c1.7,1.4,2.6,3.9,1.8,6.7c1.6-0.4,4.5-0.1,6.7,2s2.9,5.2,1.4,7.7c1.9-1,6.8,0.5,6.4,5c-0.1,1.4-0.6,2.9-1.2,4
				c0.6,0.6,1.7,1.3,1.7,1.3l0.2,2.9c0,0-7.1,0.9-7.8,1.1c-0.8,0.2-1.8-0.8-1.2-1c0.6-0.3,1.9-0.6,3.2-2.2c1.2-1.6,2.1-3.3,2.4-3.9
				c2.4-4-2.6-6.7-5-4.7c-1.1,0.9-3.3,5-5.6,7.5c-3.2,3.7-5.8,0.8-6,0.6c-0.3-0.2-0.9-0.8,0-0.9s3.8,0.2,5.3-2.2
				c1.5-2.4,4.1-6,4.7-7s2.3-4.1-0.5-6.5c-0.8-0.7-4-2.7-7.1,0.3c-1.3,1.2-5.6,6.5-6.9,8.2c-1.3,1.7-3.8,1.5-4.8,0.2
				c-0.3-0.4-0.4-1.1,0.4-0.8c0.8,0.3,1.9,0.4,3.4-1.3c1.5-1.7,6.5-8.4,7.2-9.5c0.8-1.1,1.6-3.5-0.4-5.7c-0.8-0.9-3.4-1.9-5.4-0.6
				c-3,1.9-8,7.8-9.3,9.5s-3.7-0.1-4-0.5s-0.3-0.9,0.5-0.8c0.9,0.1,1.2,0.3,2.3-0.9s4.8-5.1,5.3-5.6c1-1.1,1.2-2.6,0-4.2
				c-1.3-1.7-4.5-2-6.2-0.6c-1.5,1.2-2.5,2.1-3.3,2.9C21.5,74,21.5,72.9,22.5,71.7z"/>
		</g>
	</g>
</g>
</svg><text x="120" y="252" text-anchor="middle" font-family="-apple-system,Helvetica,sans-serif" font-size="18" font-weight="600" fill="#444">1 · Noto</text><rect x="270" y="20" width="200" height="200" rx="44" fill="url(#g)"/><svg x="294" y="44" width="152" height="152" viewBox="0 0 36 36" xmlns="http://www.w3.org/2000/svg" xmlns:xlink="http://www.w3.org/1999/xlink"><path fill="#EF9645" d="M16.428 30.331a2.31 2.31 0 0 0 3.217-.568.798.798 0 0 0-.197-1.114l-1.85-1.949 4.222 2.955a1.497 1.497 0 0 0 2.089-.369 1.5 1.5 0 0 0-.369-2.089l-3.596-3.305 5.375 3.763a1.497 1.497 0 0 0 2.089-.369 1.5 1.5 0 0 0-.369-2.089l-4.766-4.073 5.864 4.105a1.497 1.497 0 0 0 2.089-.369 1.5 1.5 0 0 0-.369-2.089L4.733 11.194l-3.467 5.521c-.389.6-.283 1.413.276 1.891l7.786 6.671c.355.304.724.591 1.107.859l5.993 4.195z"/><path fill="#FFDC5D" d="M29.802 21.752 18.5 13.601l-.059-.08.053-.08.053-.053.854.469c.958.62 3.147 1.536 4.806 1.536 1.135 0 1.815-.425 2.018-1.257a1.409 1.409 0 0 0-1.152-1.622 6.788 6.788 0 0 1-2.801-1.091l-.555-.373c-.624-.421-1.331-.898-1.853-1.206-.65-.394-1.357-.585-2.163-.585-1.196 0-2.411.422-3.585.83l-1.266.436a5.18 5.18 0 0 1-1.696.271c-1.544 0-3.055-.586-4.516-1.152l-.147-.058a1.389 1.389 0 0 0-1.674.56L1.35 15.669a1.357 1.357 0 0 0 .257 1.761l7.785 6.672c.352.301.722.588 1.1.852l6.165 4.316a2 2 0 0 0 2.786-.491.803.803 0 0 0-.196-1.115l-1.833-1.283a.424.424 0 0 1-.082-.618.422.422 0 0 1 .567-.075l3.979 2.785a1.4 1.4 0 0 0 1.606-2.294l-3.724-2.606a.424.424 0 0 1-.082-.618.423.423 0 0 1 .567-.075l5.132 3.593a1.4 1.4 0 0 0 1.606-2.294l-4.868-3.407a.42.42 0 0 1-.081-.618.377.377 0 0 1 .506-.066l5.656 3.959a1.4 1.4 0 0 0 1.606-2.295z"/><path d="M16.536 27.929c-.07.267-.207.498-.389.681l-1.004.996a1.494 1.494 0 0 1-1.437.396 1.5 1.5 0 0 1-.683-2.512l1.004-.996a1.494 1.494 0 0 1 1.437-.396 1.502 1.502 0 0 1 1.072 1.831zM5.992 23.008l1.503-1.497a1.5 1.5 0 0 0-.444-2.429 1.495 1.495 0 0 0-1.674.31l-1.503 1.497a1.5 1.5 0 0 0 .445 2.429 1.496 1.496 0 0 0 1.673-.31zm5.204.052a1.5 1.5 0 1 0-2.122-2.118L6.072 23.94a1.5 1.5 0 1 0 2.122 2.118l3.002-2.998zm2.25 3a1.5 1.5 0 0 0-.945-2.555 1.489 1.489 0 0 0-1.173.44L9.323 25.94a1.5 1.5 0 0 0 .945 2.556c.455.036.874-.141 1.173-.44l2.005-1.996zm16.555-4.137.627-.542-6.913-10.85-12.27 1.985a1.507 1.507 0 0 0-1.235 1.737c.658 2.695 6.003.693 8.355-.601l11.436 8.271z" fill="#EF9645"/><path d="M16.536 26.929c-.07.267-.207.498-.389.681l-1.004.996a1.494 1.494 0 0 1-1.437.396 1.5 1.5 0 0 1-.683-2.512l1.004-.996a1.494 1.494 0 0 1 1.437-.396 1.502 1.502 0 0 1 1.072 1.831zM5.992 22.008l1.503-1.497a1.5 1.5 0 0 0-.444-2.429 1.497 1.497 0 0 0-1.674.31l-1.503 1.497a1.5 1.5 0 0 0 .445 2.429 1.496 1.496 0 0 0 1.673-.31zm5.204.052a1.5 1.5 0 1 0-2.122-2.118L6.072 22.94a1.5 1.5 0 1 0 2.122 2.118l3.002-2.998zm2.25 3a1.5 1.5 0 0 0-.945-2.555 1.489 1.489 0 0 0-1.173.44L9.323 24.94a1.5 1.5 0 0 0 .945 2.556c.455.036.874-.141 1.173-.44l2.005-1.996zm21.557-7.456a1.45 1.45 0 0 0 .269-1.885l-.003-.005-3.467-6.521a1.488 1.488 0 0 0-1.794-.6c-1.992.771-4.174 1.657-6.292.937l-1.098-.377c-1.948-.675-4.066-1.466-6-.294-.695.409-1.738 1.133-2.411 1.58a6.873 6.873 0 0 1-2.762 1.076 1.502 1.502 0 0 0-1.235 1.737c.613 2.512 5.3.908 7.838-.369a.968.968 0 0 1 1.002.081l11.584 8.416 4.369-3.776z" fill="#FFCC4D"/></svg><text x="370" y="252" text-anchor="middle" font-family="-apple-system,Helvetica,sans-serif" font-size="18" font-weight="600" fill="#444">2 · Twemoji</text><rect x="520" y="20" width="200" height="200" rx="44" fill="url(#g)"/><svg x="544" y="44" width="152" height="152" viewBox="0 0 72 72" xmlns="http://www.w3.org/2000/svg" xmlns:xlink="http://www.w3.org/1999/xlink">
  <g id="color"/>
  <g id="skin">
    <g id="skin-a">
      <path fill="#fcea2b" d="M62.622,40.338c.96,3.25-1.109,5.983-4.435,5.392.443,3.249-2.735,6.13-6.579,4.283,1.478,3.766-1.997,5.908-4.731,4.283,1.403,1.6985-.813,7.46-9.387,1.994l-1.6426-.9033L16.5088,44.7522,15.05,43.95s-7.133-5.822-8.537-8.259c-4.392-7.595.9489-19.79,10.44-21.82l7.9426-1.4243,5.2391,7.9469,13.0738,6.0043L56,33.58l3.6854,3.7675Z"/>
    </g>
    <g id="skin-b">
      <path fill="#fcea2b" d="M62.622,40.338c6.721-4.585,5.041-19.03-.0988-25.36-9.287-1.459-11-2.362-20.98-3.943l-13.53-.6185a3.9934,3.9934,0,0,0-4.779,2.533,32.8568,32.8568,0,0,1-3.599,8.378,3.5387,3.5387,0,0,0,1.872,4.588c1.908.4767,2.78-.386,4.46-1.686a25.9541,25.9541,0,0,0,3.805-4.575l13.64,6.204,12.72,7.164c2.514,1.698,5.012,5.844,6.51,7.321"/>
      <path fill="#fcea2b" d="M31.51,54.15a3.0218,3.0218,0,0,1,4.144-.9c1.405.8125,2.439,2.362,1.478,4.063l-1.774,3.101A3.27,3.27,0,0,1,29.7,57.2424l1.81-3.094Z"/>
      <path fill="#fcea2b" d="M25.84,50.98a3.0218,3.0218,0,0,1,4.144-.9c1.405.8125,2.439,2.362,1.478,4.063l-1.774,3.101a3.27,3.27,0,0,1-5.658-3.1713l1.81-3.094Z"/>
      <path fill="#fcea2b" d="M20.18,47.82a3.0218,3.0218,0,0,1,4.144-.9c1.405.8125,2.439,2.362,1.478,4.063l-1.774,3.101a3.27,3.27,0,0,1-5.658-3.1713l1.81-3.094Z"/>
      <path fill="#fcea2b" d="M14.53,44.65a3.0218,3.0218,0,0,1,4.144-.9c1.405.8125,2.439,2.362,1.478,4.063l-1.774,3.101a3.27,3.27,0,0,1-5.658-3.1713l1.81-3.094Z"/>
    </g>
  </g>
  <g id="line">
    <path fill="none" stroke="#000" stroke-linecap="round" stroke-linejoin="round" stroke-width="2" d="M15.05,43.95s-7.133-5.822-8.537-8.259c-4.392-7.595.9489-19.79,10.44-21.82"/>
    <path fill="none" stroke="#000" stroke-linecap="round" stroke-linejoin="round" stroke-width="2" d="M38.71,42.99,51.6,50.011"/>
    <path fill="none" stroke="#000" stroke-linecap="round" stroke-linejoin="round" stroke-width="2" d="M33.87,47.79l13,6.498"/>
    <path fill="none" stroke="#000" stroke-linecap="round" stroke-linejoin="round" stroke-width="2" d="M58.18,45.72l-5.1-4.358-8.279-4.335"/>
    <path fill="none" stroke="#000" stroke-linecap="round" stroke-linejoin="round" stroke-width="2" d="m29.772 19.654 13.64 6.204 12.72 7.164c2.514 1.698 5.012 5.844 6.51 7.321"/>
    <path fill="none" stroke="#000" stroke-linecap="round" stroke-linejoin="round" stroke-width="2" d="M37.49,56.29c8.574,5.466,10.79-.2955,9.387-1.994,2.734,1.625,6.209-.517,4.731-4.283,3.844,1.847,7.022-1.034,6.579-4.283,3.326.591,5.395-2.142,4.435-5.392,6.721-4.585,5.041-19.03-.0988-25.36-9.287-1.459-11-2.362-20.98-3.943l-13.53-.6185a3.9934,3.9934,0,0,0-4.779,2.533,32.8568,32.8568,0,0,1-3.599,8.378,3.5387,3.5387,0,0,0,1.872,4.588c1.908.4767,2.78-.386,4.46-1.686a25.9541,25.9541,0,0,0,3.805-4.575"/>
    <path fill="none" stroke="#000" stroke-linecap="round" stroke-linejoin="round" stroke-width="2" d="M31.51,54.15a3.0218,3.0218,0,0,1,4.144-.9c1.405.8125,2.439,2.362,1.478,4.063l-1.774,3.101A3.27,3.27,0,0,1,29.7,57.2424l1.81-3.094Z"/>
    <path fill="none" stroke="#000" stroke-linecap="round" stroke-linejoin="round" stroke-width="2" d="M25.84,50.98a3.0218,3.0218,0,0,1,4.144-.9c1.405.8125,2.439,2.362,1.478,4.063l-1.774,3.101a3.27,3.27,0,0,1-5.658-3.1713l1.81-3.094Z"/>
    <path fill="none" stroke="#000" stroke-linecap="round" stroke-linejoin="round" stroke-width="2" d="M20.18,47.82a3.0218,3.0218,0,0,1,4.144-.9c1.405.8125,2.439,2.362,1.478,4.063l-1.774,3.101a3.27,3.27,0,0,1-5.658-3.1713l1.81-3.094Z"/>
    <path fill="none" stroke="#000" stroke-linecap="round" stroke-linejoin="round" stroke-width="2" d="M14.53,44.65a3.0218,3.0218,0,0,1,4.144-.9c1.405.8125,2.439,2.362,1.478,4.063l-1.774,3.101a3.27,3.27,0,0,1-5.658-3.1713l1.81-3.094Z"/>
  </g>
</svg><text x="620" y="252" text-anchor="middle" font-family="-apple-system,Helvetica,sans-serif" font-size="18" font-weight="600" fill="#444">3 · OpenMoji</text></svg>