<svg width="512" height="512" viewBox="0 0 512 512" xmlns="http://www.w3.org/2000/svg">
<defs>
<linearGradient id="g" x1="0" y1="0" x2="0" y2="1"><stop offset="0%" stop-color="#6366F1"/><stop offset="100%" stop-color="#4338CA"/></linearGradient>
<path id="petal" d="M256 256 C 200 192 200 120 256 104 C 312 120 312 192 256 256 Z"/>
</defs>
<rect width="512" height="512" rx="112" fill="url(#g)"/>
<g fill="none" stroke="#ffffff" stroke-width="13" stroke-linejoin="round">
<use href="#petal" transform="rotate(0 256 256)"/>
<use href="#petal" transform="rotate(45 256 256)"/>
<use href="#petal" transform="rotate(90 256 256)"/>
<use href="#petal" transform="rotate(135 256 256)"/>
<use href="#petal" transform="rotate(180 256 256)"/>
<use href="#petal" transform="rotate(225 256 256)"/>
<use href="#petal" transform="rotate(270 256 256)"/>
<use href="#petal" transform="rotate(315 256 256)"/>
</g>
<g fill="#ffffff">
<circle cx="256" cy="256" r="11"/>
<g><circle cx="256" cy="150" r="9"/></g>
<g transform="rotate(45 256 256)"><circle cx="256" cy="150" r="9"/></g>
<g transform="rotate(90 256 256)"><circle cx="256" cy="150" r="9"/></g>
<g transform="rotate(135 256 256)"><circle cx="256" cy="150" r="9"/></g>
<g transform="rotate(180 256 256)"><circle cx="256" cy="150" r="9"/></g>
<g transform="rotate(225 256 256)"><circle cx="256" cy="150" r="9"/></g>
<g transform="rotate(270 256 256)"><circle cx="256" cy="150" r="9"/></g>
<g transform="rotate(315 256 256)"><circle cx="256" cy="150" r="9"/></g>
</g>
</svg>
